<?xml version="1.0" encoding="UTF-8" standalone="no"?>
<!-- Created with Inkscape (http://www.inkscape.org/) -->

<svg
   width="261.7002mm"
   height="391.08386mm"
   viewBox="0 0 261.7002 391.08386"
   version="1.1"
   id="svg507"
   xmlns="http://www.w3.org/2000/svg"
   xmlns:svg="http://www.w3.org/2000/svg">
  <defs
     id="defs504" />
  <g
     id="layer1"
     transform="translate(-2.6540314,99.370262)">
    <g
       style="clip-rule:evenodd;fill:#020d03;fill-opacity:1;fill-rule:evenodd;stroke:none;stroke-linecap:round;stroke-linejoin:round"
       id="gecko"
       transform="matrix(0.26997242,0.257562,-0.257562,0.26997242,175.80958,-182.7563)">
      <path
         stroke="#88a900"
         stroke-width="1"
         d="m 248.495,423.515 c 0,73.149 15.383,118.711 65.229,180.552 2.051,2.545 21.063,22.52 38.668,37.463 14.214,12.065 32.299,21.212 35.013,14.898 1.345,-3.129 -13.303,-11.006 -27.556,-21.822 -19.41,-14.731 -40.756,-33.364 -44.659,-38.552 -14.668,-19.497 -37.019,-57.213 -47.639,-94.079 -17.525,-60.834 -19.056,-118.137 -19.056,-78.46 z"
         fill="#88a900"
         stroke-linecap="butt"
         opacity="1"
         stroke-linejoin="round"
         id="path900"
         style="fill:#020d03;fill-opacity:1;stroke:none" />
      <path
         stroke="#88a900"
         stroke-width="1"
         d="m 167.846,350.439 c 1.711,-3.866 -1.265,6.048 2.611,3.436 8.163,-5.5 25.848,-17.795 27.486,-27.623 3.036,-18.213 -12.704,-22.915 -23.5,-19.241 -15.511,5.279 -28.863,25.218 -29.685,25.013 -7.057,-1.764 -1.78,-50.922 -30.235,-36.694 -31.92,15.96 5.966,37.311 -3.985,49.75 -8.844,11.054 -61.0015,-30.486 -55.7971,16.354 2.8782,25.904 48.1011,6.325 49.4751,13.193 3.45,17.249 -49.8578,11.39 -33.1209,40.68 15.9837,27.971 40.1929,-18.723 45.9019,-14.156 8.502,6.802 -17.9898,27.921 -11.407,38.893 8.396,13.993 29.415,11.706 36.831,-2.199 3.148,-5.901 2.587,-29.85 8.631,-31.864 1.709,-0.57 19.329,23.239 38.876,27.841 13.153,3.096 32.836,-11.253 40.064,-14.701 7.255,-3.461 10.755,-8.776 17.764,-17.296 3.075,-3.738 -48.223,23.345 -56.128,21.369 -12.767,-3.192 -27.492,-23.582 -41.373,-20.806 -2.248,0.45 -7.277,20.864 -14.705,32.983 -5.862,9.563 -13.476,13.092 -20.615,3.574 -7.729,-10.307 15.447,-29.493 4.81,-40.13 -8.471,-8.472 -31.9967,30.132 -38.0677,9.895 -4.8711,-16.237 30.2967,-25.439 25.2867,-35.457 -5.323,-10.647 -35.213,6.99 -38.48,-9.345 -7.2683,-36.342 35.474,-5.22 47.413,-15.667 12.642,-11.062 -34.8675,-35.136 1.787,-42.466 25.605,-5.121 13.267,27.838 28.036,29.685 11.83,1.478 28.64,-37.624 40.817,-16.08 10.719,18.966 -19.307,32.452 -18.691,31.059 z"
         fill="#88a900"
         stroke-linecap="butt"
         opacity="1"
         stroke-linejoin="round"
         id="path902"
         style="fill:#020d03;fill-opacity:1;stroke:none" />
      <path
         stroke="#88a900"
         stroke-width="1"
         d="M 170.824,354.644"
         fill="#88a900"
         stroke-linecap="butt"
         opacity="1"
         stroke-linejoin="round"
         id="path904"
         style="fill:#020d03;fill-opacity:1;stroke:none" />
      <path
         stroke="#88a900"
         stroke-width="1"
         d="m 171.309,354.32 c -9.83,-4.915 9.192,17.037 30.895,14.055 21.703,-2.982 30.589,-22.965 34.417,-36.364 12.134,-42.467 -22.744,-62.001 -27.644,-101.202 -2.643,-21.144 11.478,-62.887 11.478,-62.887 0,0 -3.239,44.575 -0.485,66.606 3.9,31.198 34.26,56.95 24.896,89.723 -6.776,23.717 -20.584,39.924 -34.296,44.952 -11.494,4.215 -22.858,-0.544 -30.566,-4.473 -6.683,-3.405 -15.683,-8.496 -11.281,-15.098"
         fill="#88a900"
         stroke-linecap="butt"
         opacity="1"
         stroke-linejoin="round"
         id="path906"
         style="fill:#020d03;fill-opacity:1;stroke:none" />
      <path
         stroke="#88a900"
         stroke-width="1"
         d="m 219.054,165.634 c -2.591,-7.921 6.908,-38.265 15.033,-35.525 3.156,1.065 12.78,-28.506 28.554,-51.2517 13.953,-20.121 31.326,-30.7682 44.651,-29.2875 15.66,1.7399 51.89,40.8521 55.839,48.5726 4.806,9.3936 20.223,7.1206 25.46,15.1056 8.449,12.883 -1.097,31.99 -1.051,31.894 0.074,-0.158 6.388,-2.782 9.094,-8.772 2.322,-5.141 2.243,-14.626 1.262,-21.492 -2.348,-16.4346 -24.26,-10.629 -31.816,-24.4421 -14.189,-25.9405 -19.993,-49.7475 -56.656,-58.9132 -4.628,-1.157 -19.538,1.4652 -31.483,12.2128 -12.332,11.0967 -21.635,30.3319 -21.637,29.1917 -0.002,-1.7603 -13.322,29.0818 -21.364,46.7088 -2.172,4.762 -6.887,4.225 -9.536,5.473 -11.041,5.204 -15.715,17.46 -16.079,20.01 -1.357,9.499 11.889,27.118 9.729,20.515 z"
         fill="#88a900"
         stroke-linecap="butt"
         opacity="1"
         stroke-linejoin="round"
         id="path908"
         style="fill:#020d03;fill-opacity:1;stroke:none" />
      <path
         stroke="#88a900"
         stroke-width="1"
         d="m 387.946,146.013 c -2.59,-4.946 0.331,11.205 1.353,16.694 1.763,9.468 4.195,19.55 2.735,29.202 -0.336,2.227 -6.5,24.964 -7.426,27.085 -14.312,32.792 -31.295,102.146 23.031,102.589 1.468,0.012 13.202,-4.144 17.392,-9.793 6.158,-8.305 10.334,-19.45 11.033,-20.737 2.101,-3.867 6.889,-18.403 6.85,-18.421 -1.293,-0.622 -6.22,9.495 -6.705,10.202 -2.833,4.129 -7.345,16.644 -14.687,24.912 -9.054,10.194 -24.118,14.867 -34.177,3.503 -24.536,-27.722 7.004,-79.516 13.898,-112.716 5.439,-26.197 -3.849,-34.475 -13.297,-52.52 z"
         fill="#88a900"
         stroke-linecap="butt"
         opacity="1"
         stroke-linejoin="round"
         id="path910"
         style="fill:#020d03;fill-opacity:1;stroke:none" />
      <path
         stroke="#88a900"
         stroke-width="1"
         d="m 442.249,272.875 c 5.119,0.59 -9.707,-3.462 -14.76,-4.473 -8.373,-1.675 -33.244,-1.643 -27.624,-17.379 9.766,-27.344 28.791,-1.398 42.925,-6.225 2.796,-0.955 -18.147,-26.873 -11.689,-37.944 5.502,-9.431 22.752,0.033 25.887,1.536 3.135,1.503 14.066,21.303 14.956,21.272 3.915,-0.139 2.302,-33.353 23.052,-32.41 9.658,0.439 12.241,6.294 14.288,8.994 7.529,9.928 -22.87,27.885 -14.716,38.368 7.695,9.894 48.046,-35.931 41.919,13.085 -2.637,21.096 -37.992,3.472 -39.562,19.168 -1.056,10.559 31.952,3.51 23.18,24.813 -3.861,9.377 -41.957,-19.96 -35.596,-9.359 4.954,8.257 21.531,25.284 34.274,24.122 7.966,-0.726 17.377,-11.178 12.431,-27.253 -2.502,-8.131 -24.001,-9.941 -23.977,-12.738 0.025,-2.797 20.219,2.588 21.293,2.453 15.802,-1.975 21.853,-22.503 17.686,-37.506 -9.883,-35.575 -41.47,6.214 -49.184,-1.5 -6.455,-6.455 41.772,-22.404 21.752,-39.754 -4.121,-3.572 -7.924,-9.167 -12.892,-11.268 -34.508,-14.6 -27.522,32.589 -34.538,31.777 -7.016,-0.811 -1.992,-12.634 -9.124,-19.664 -2.264,-2.23 -5.424,-6.437 -10.143,-8.502 -6.647,-2.909 -20.281,-2.505 -25.742,3.685 -14.55,16.49 13.568,43.643 11.515,45.696 -1.085,1.085 -29.771,-11.513 -36.623,-8.399 -7.44,3.382 -10.035,14.915 -10.287,21.966 -0.938,26.252 44.904,20.874 47.445,20.75 2.541,-0.124 1.578,-3.573 3.854,-3.311 z"
         fill="#88a900"
         stroke-linecap="butt"
         opacity="1"
         stroke-linejoin="round"
         id="path912"
         style="fill:#020d03;fill-opacity:1;stroke:none" />
      <path
         stroke="#88a900"
         stroke-width="1"
         d="m 483.489,291.167 c 0.667,-2.809 -6.253,-0.103 -9.897,10.878 -3.644,10.98 -10.236,27.268 -18.821,37.595 -9.374,11.276 -50.856,23.207 -36.286,24.873 5.636,0.645 35.35,-9.408 44.32,-17.418 18.954,-16.924 17.676,-43.251 20.684,-55.928 z"
         fill="#88a900"
         stroke-linecap="butt"
         opacity="1"
         stroke-linejoin="round"
         id="path914"
         style="fill:#020d03;fill-opacity:1;stroke:none" />
      <path
         stroke="#88a900"
         stroke-width="1"
         d="m 414.591,368.078 c -6.651,-1.365 9.005,14.839 23.119,33.406 16.605,21.846 32.984,49.712 36.42,58.164 8.59,21.131 13.985,42.031 19.191,64.141 0.307,1.303 4.797,21.714 6.529,21.109 3.43,-1.199 1.89,-16.524 1.596,-19.202 -2.933,-26.705 -23.502,-96.688 -52.913,-132.323 -10.81,-13.097 -29.573,-24.398 -33.942,-25.295 z"
         fill="#88a900"
         stroke-linecap="butt"
         opacity="1"
         stroke-linejoin="round"
         id="path916"
         style="fill:#020d03;fill-opacity:1;stroke:none" />
      <path
         stroke="#88a900"
         stroke-width="1"
         d="m 503.958,542.962 c -0.102,0.724 15.718,-32.435 32.515,-38.27 17.622,-6.121 42.676,20.746 49.305,16.871 6.867,-4.015 -2.434,-32.963 17.078,-27.045 15.35,4.656 8.91,31.349 17.839,30.421 7.271,-0.755 22.506,-52.404 36.542,-32.859 10.103,14.069 -13.219,36.731 -5.187,41.989 9.08,5.945 43.806,-39.534 51.17,-8.091 10.513,44.883 -42.77,21.697 -53.45,42.499 -5.262,10.249 45.957,49.079 14.001,54.537 -28.096,4.799 -23.419,-48.729 -44.64,-42.882 -14.945,4.117 -4.073,48.066 -28.03,52.158 -33.202,5.671 -4.106,-54.378 -0.768,-58.174 4.555,-5.18 -13.044,-11.509 -20.136,-12.38 -6.558,-0.805 -17.229,15.69 -20.159,27.749 -1.927,7.932 -3.432,19.834 -4.322,28.953 -0.162,1.654 -0.303,3.217 -0.423,4.648 -0.329,3.921 3.133,37.893 29.927,66.441 9.329,9.94 49.676,45.021 53.623,47.836 12.838,9.158 -27.951,-31.823 -44.772,-50.785 -16.239,-18.306 -39.882,-38.938 -33.286,-76.935 3.178,-18.307 8.213,-40.192 19.536,-40.441 7.696,-0.169 12.599,6.541 9.91,10.805 -14.763,23.414 -37.055,65.579 10.14,66.478 24.461,0.466 26.154,-56.124 30.492,-55.194 19.555,4.195 18.272,66.352 54.804,38.369 36.87,-28.242 -23.445,-49.54 -19.641,-58.086 8.949,-20.102 70.225,6.46 63.246,-50.023 -4.51,-36.501 -55.048,9.337 -61.091,5.277 -6.043,-4.061 26.155,-27.1 11.425,-40.696 -32.388,-29.897 -42.557,27.695 -47.966,27.949 -9.127,0.427 -2.019,-27.5 -11.759,-30.779 -5.2,-1.751 -11.631,-2.024 -16.535,0.742 -16.331,9.209 -7.974,26.225 -12.536,27.373 -2.406,0.605 -28.453,-20.332 -40.37,-20.668 -17.312,-0.489 -33.091,28.212 -36.482,52.213 z"
         fill="#88a900"
         stroke-linecap="butt"
         opacity="1"
         stroke-linejoin="round"
         id="path918"
         style="fill:#020d03;fill-opacity:1;stroke:none" />
      <path
         stroke="#88a900"
         stroke-width="1"
         d="m 628.924,736.992 c 31.802,28.379 75.253,47.021 96.138,121.743 9.25,33.095 15.966,98.527 -2.635,157.705 -23.396,74.44 -83.59,140.48 -192.489,136.61 -71.995,-2.55 -165.859,-86.22 -134.242,-164.116 37.749,-93.009 99.491,-96.445 137.486,-79.68 27.18,11.992 33.121,40.847 35.749,39.554 5.83,-2.869 -10.14,-37.876 -26.658,-48.193 -22.679,-14.165 -49.905,-11.591 -70.082,-6.344 -69.442,18.059 -115.734,118.209 -72.55,190.699 12.625,21.19 33.898,46.55 62.404,57.54 C 666.747,1221.44 793.11,1024.82 732.12,840.117 712.324,780.164 663.476,761.359 614.846,719.339"
         fill="#88a900"
         stroke-linecap="butt"
         opacity="1"
         stroke-linejoin="round"
         id="path920"
         style="fill:#020d03;fill-opacity:1;stroke:none" />
      <path
         stroke="#88a900"
         stroke-width="1"
         d="m 567.345,949.549 c -5.637,2.429 -5.209,-14.048 -41.91,-14.048 -28.542,0 -28.078,5.534 -52.994,25.11 -12.899,10.134 -32.924,39.221 -26.042,68.399 8.652,36.69 54.348,64.53 98.974,64.78 49.43,0.28 126.666,-27.58 135.306,-148.537 5.992,-83.891 -92.237,-165.267 -160.831,-192.039 -36.566,-14.271 -36.449,-11.782 -63.859,-22.06 -5.279,-1.98 -63.7,-8.745 -61.179,-11.397 2.946,-3.098 7.291,-4.816 12.536,-5.552 12.98,-1.819 31.469,2.381 47.896,6.586 23.066,5.905 79.215,26.741 98.312,35.674 126.082,58.973 186.238,204.561 78.301,312.495 -19.979,19.98 -46.369,30.48 -77.008,31.18 -68.939,1.58 -144.316,-38.26 -110.655,-115.2 3.746,-8.561 17.79,-27.758 34.144,-39.067 16.586,-11.47 35.137,-17.002 47.099,-18.379 21.902,-2.522 43.54,21.353 41.91,22.055 z"
         fill="#88a900"
         stroke-linecap="butt"
         opacity="1"
         stroke-linejoin="round"
         id="path922"
         style="fill:#020d03;fill-opacity:1;stroke:none" />
      <path
         stroke="#88a900"
         stroke-width="1"
         d="m 464.225,1035.5 c 0.236,-0.04 0.472,-0.07 0.708,-0.1"
         fill="#88a900"
         stroke-linecap="butt"
         opacity="1"
         stroke-linejoin="round"
         id="path924"
         style="fill:#020d03;fill-opacity:1;stroke:none" />
      <path
         stroke="#88a900"
         stroke-width="1"
         d="m 379.028,663.588 c -16.601,9.959 -71.458,18.493 -77.126,37.807 -5.146,17.539 34.601,47.629 34.601,47.629 0,0 -18.527,-8.091 -25.629,-13.483 -7.121,-5.407 -15.437,-9.122 -20.136,-17.274 -18.013,-31.251 36.535,-50.018 60.084,-54.133 1.768,-0.309 34.349,-4.231 28.206,-0.546 z"
         fill="#88a900"
         stroke-linecap="butt"
         opacity="1"
         stroke-linejoin="round"
         id="path926"
         style="fill:#020d03;fill-opacity:1;stroke:none" />
      <path
         stroke="#88a900"
         stroke-width="1"
         d="m 338.016,753.03 c -5.625,5.118 -20.696,3.707 -30.82,3.306 -5.469,-0.217 -13.097,5.469 -10.905,11.756 6.15,17.644 42.562,3.314 42.708,25.437 0.087,13.052 -58.369,13.842 -40.256,29.456 16.275,14.031 36.097,-24.45 48.381,-10.65 10.236,11.499 -51.412,58.735 1.328,64.701 32.39,3.664 10.364,-48.538 28.984,-60.195 19.341,-12.107 11.306,40.08 38.487,28.026 9.077,-4.026 10.812,-7.337 11.012,-12.12 0.707,-16.833 -34.818,-34.077 -29.481,-47.269 7.231,-17.868 41.877,4.569 48.499,-18.048 6.171,-21.075 -20.634,-20.173 -38.023,-12.074 -7.241,3.373 -22.315,-3.681 -26.282,-8.409 -21.225,-25.305 16.668,-37.201 39.568,-32.698 3.479,0.684 -48.985,6.898 -38.197,23.837 2.986,4.688 7.333,6.947 17.386,7.816 10.053,0.868 31.83,-10.341 43.763,-3.841 7.679,4.182 21.524,16.95 15.346,33.801 -10.954,29.877 -50.457,-5.103 -59.076,11.364 -4.367,8.343 34.635,19.922 41.714,38.18 3.78,9.746 -3.45,25.93 -26.983,34.464 -29.352,10.645 -20.082,-40.374 -35.986,-38.847 -18.145,1.741 15.584,75.499 -38.525,67.712 -69.438,-9.994 6.919,-55.309 -1.838,-71.317 -5.52,-10.091 -15.619,9.698 -28.335,16.715 -5.525,3.048 -15.237,0.492 -19.124,-2.649 -38.69,-31.263 37.381,-30.253 38.502,-39.582 1.6,-13.305 -48.729,-2.084 -43.006,-29.194 1.233,-5.839 6.275,-12.905 14.425,-14.16 10.942,-1.684 28.216,-1.194 35.165,0.7 2.514,0.685 1.759,3.61 1.569,3.782 z"
         fill="#88a900"
         stroke-linecap="butt"
         opacity="1"
         stroke-linejoin="round"
         id="path928"
         style="fill:#020d03;fill-opacity:1;stroke:none" />
    </g>
  </g>
</svg>
