<?xml version="1.0" encoding="UTF-8" standalone="no"?>
<svg
   xmlns:dc="http://purl.org/dc/elements/1.1/"
   xmlns:cc="http://creativecommons.org/ns#"
   xmlns:rdf="http://www.w3.org/1999/02/22-rdf-syntax-ns#"
   xmlns:svg="http://www.w3.org/2000/svg"
   xmlns="http://www.w3.org/2000/svg"
   xmlns:sodipodi="http://sodipodi.sourceforge.net/DTD/sodipodi-0.dtd"
   xmlns:inkscape="http://www.inkscape.org/namespaces/inkscape"
   width="1172.8673"
   height="949.16498"
   viewBox="0 0 310.32114 251.13324"
   version="1.1"
   id="svg829"
   sodipodi:docname="Gecko Logo.svg"
   inkscape:version="1.0 (4035a4fb49, 2020-05-01)">
  <defs
     id="defs823" />
  <sodipodi:namedview
     fit-margin-bottom="0"
     fit-margin-right="0"
     fit-margin-left="0"
     fit-margin-top="0"
     id="base"
     pagecolor="#ffffff"
     bordercolor="#666666"
     borderopacity="1.0"
     inkscape:pageopacity="0.0"
     inkscape:pageshadow="2"
     inkscape:zoom="0.175"
     inkscape:cx="370.80117"
     inkscape:cy="655.91818"
     inkscape:document-units="px"
     inkscape:current-layer="layer1"
     showgrid="false"
     inkscape:snap-bbox="true"
     inkscape:bbox-paths="true"
     inkscape:bbox-nodes="true"
     inkscape:snap-bbox-midpoints="true"
     inkscape:snap-bbox-edge-midpoints="true"
     inkscape:object-paths="true"
     inkscape:snap-intersection-paths="true"
     inkscape:snap-midpoints="true"
     inkscape:snap-smooth-nodes="true"
     inkscape:snap-object-midpoints="true"
     inkscape:snap-center="true"
     inkscape:snap-text-baseline="true"
     inkscape:snap-page="false"
     units="px"
     inkscape:pagecheckerboard="true"
     showborder="false"
     inkscape:window-width="1920"
     inkscape:window-height="1017"
     inkscape:window-x="-8"
     inkscape:window-y="-8"
     inkscape:window-maximized="1"
     inkscape:snap-global="true"
     showguides="false"
     inkscape:document-rotation="0" />
  <metadata
     id="metadata826">
    <rdf:RDF>
      <cc:Work
         rdf:about="">
        <dc:format>image/svg+xml</dc:format>
        <dc:type
           rdf:resource="http://purl.org/dc/dcmitype/StillImage" />
        <dc:title></dc:title>
      </cc:Work>
    </rdf:RDF>
  </metadata>
  <g
     inkscape:label="Layer 1"
     inkscape:groupmode="layer"
     id="layer1"
     transform="translate(-1596.6197,-92.439516)">
    <text
       xml:space="preserve"
       style="font-style:normal;font-variant:normal;font-weight:bold;font-stretch:normal;font-size:126.804px;line-height:1.25;font-family:Georgia;-inkscape-font-specification:'Georgia Bold';letter-spacing:8.86883px;word-spacing:0px;fill:#000000;fill-opacity:1;stroke:none;stroke-width:0.660439"
       x="896.55951"
       y="1618.0165"
       id="text1874"><tspan
         sodipodi:role="line"
         id="tspan1872"
         x="896.55951"
         y="1618.0165"
         style="font-style:normal;font-variant:normal;font-weight:bold;font-stretch:normal;font-family:Georgia;-inkscape-font-specification:'Georgia Bold';letter-spacing:8.86883px;stroke-width:0.660439" /></text>
    <g
       id="g2418"
       transform="matrix(1.3241334,0,0,1.3241334,1781.8229,-215.31297)">
      <path
         style="fill:#ff5555;stroke:none;stroke-width:3.78354;stroke-linecap:round;stroke-linejoin:round;stroke-miterlimit:4;stroke-dasharray:none;stroke-opacity:1"
         d="m -102.9036,322.24778 c -10.20694,33.65174 -39.54853,82.37688 -17.00058,89.64274 12.44933,4.01168 95.17233,-13.46086 121.20301,-50.8169 7.46544,-10.71349 36.81162,-29.35968 14.09847,-36.54911 -4.4805,-1.41822 -8.56533,1.64418 -14.09847,2.93997 -19.23709,4.50504 -55.51768,-1.11829 -83.92263,-2.80634 z"
         id="path2338"
         inkscape:connector-curvature="0"
         sodipodi:nodetypes="csssscc" />
      <path
         inkscape:connector-curvature="0"
         id="path2340"
         d="m -85.3861,324.4023 c -2.34554,0.87952 -4.54322,2.67219 -5.15044,5.19855 -0.6945,2.84794 0.0238,5.80052 0.77372,8.56138 1.77694,6.08449 4.1361,11.99272 5.39862,18.20951 0.30061,0.46704 0.88141,-0.0707 1.28509,-0.10206 2.15243,-0.63555 4.37911,-1.14793 6.63377,-1.04202 2.34231,-0.10343 4.74064,0.3621 6.77958,1.56986 2.0011,1.35908 3.70681,3.41671 4.05697,5.87671 -0.0698,0.32855 0.11422,0.84256 0.5415,0.67032 4.79714,-0.17907 9.63027,-0.28932 14.35184,0.64134 1.92657,0.36286 3.77551,1.15603 5.31668,2.3897 2.77768,2.08408 5.21153,4.56538 7.59781,7.07374 0.84732,0.15934 1.75719,-0.0533 2.62819,-0.0695 4.55101,-0.36221 9.14578,-1.24227 13.21403,-3.39922 4.09064,-2.10348 7.93776,-4.68642 12.1634,-6.51929 4.16597,-1.90232 8.51895,-3.32089 12.90403,-4.61072 0.40372,-0.44277 0.43629,-1.14346 0.64725,-1.70495 0.43213,-2.09645 0.24098,-4.26111 0.34398,-6.38694 0.0251,-3.08213 0.15855,-6.15755 0.70265,-9.19259 -0.17109,-0.63974 -0.96397,-0.83032 -1.42226,-1.22725 -4.05566,-2.64397 -7.12244,-6.62943 -9.02948,-11.07906 -0.1197,-0.3627 -0.34848,-0.81134 -0.80634,-0.65856 -6.4728,0.57205 -12.98106,0.48854 -19.47589,0.31256 -11.27085,-0.42506 -22.51252,-1.54277 -33.75455,-2.51857 -8.55732,-0.76335 -17.12567,-1.52721 -25.70015,-1.99289 z"
         style="opacity:1;vector-effect:none;fill:#800000;fill-opacity:1;fill-rule:nonzero;stroke:none;stroke-width:3.78354;stroke-linecap:round;stroke-linejoin:round;stroke-miterlimit:4;stroke-dasharray:none;stroke-dashoffset:0;stroke-opacity:1;paint-order:markers fill stroke" />
      <ellipse
         style="opacity:1;vector-effect:none;fill:#ffffff;fill-opacity:1;fill-rule:nonzero;stroke:none;stroke-width:3.78354;stroke-linecap:round;stroke-linejoin:round;stroke-miterlimit:4;stroke-dasharray:none;stroke-dashoffset:0;stroke-opacity:1;paint-order:markers fill stroke"
         id="ellipse2342"
         cx="-86.699638"
         cy="266.46021"
         rx="24.254709"
         ry="25.056519" />
      <path
         sodipodi:nodetypes="csssscccsscssccc"
         inkscape:connector-curvature="0"
         id="path2344"
         d="m 1.29883,361.07362 c 7.46544,-10.71349 36.81162,-29.35968 14.09847,-36.54911 -4.4805,-1.41822 -8.56533,1.64418 -14.09847,2.93996 -19.23709,4.50505 -55.51768,-1.11828 -83.92263,-2.80633 -14.20076,-0.84392 -50.70672,-5.76051 -55.05752,-17.37252 -4.06814,-10.85761 35.53043,-38.03252 39.42226,-42.62949 -0.36895,-13.24374 5.25296,-30.9738 12.16075,-29.39964 0.76788,0.17498 0.84821,1.13976 1.06244,2.67049 4.89658,1.43939 10.04132,-4.60115 11.90625,-3.49628 24.73239,14.65257 51.76754,2.27706 67.07854,8.1757 16.17153,6.23017 39.84827,4.55819 64.67923,14.96709 0.24957,0.10462 24.65094,9.73862 31.00326,17.10525 11.5966,13.44827 -14.2619,33.3174 -15.23436,51.04848 -1.76598,32.19954 -75.53073,61.4633 -77.4431,62.15603 -36.04385,13.05648 -107.93413,54.13022 -124.07798,17.36504 33.41488,18.88491 111.6093,-22.22574 128.42286,-44.17467 z"
         style="fill:#88aa00;stroke:none;stroke-width:3.78354;stroke-linecap:round;stroke-linejoin:round;stroke-miterlimit:4;stroke-dasharray:none;stroke-opacity:1" />
      <ellipse
         style="opacity:1;vector-effect:none;fill:#668000;fill-opacity:1;fill-rule:nonzero;stroke:none;stroke-width:2.01027;stroke-linecap:round;stroke-linejoin:round;stroke-miterlimit:4;stroke-dasharray:none;stroke-dashoffset:0;stroke-opacity:1;paint-order:markers fill stroke"
         id="ellipse2346"
         cx="-4.2023654"
         cy="292.10358"
         rx="27.100595"
         ry="27.996483" />
      <ellipse
         ry="25.056519"
         rx="24.254709"
         cy="289.84628"
         cx="-7.3205833"
         id="ellipse2348"
         style="opacity:1;vector-effect:none;fill:#ffffff;fill-opacity:1;fill-rule:nonzero;stroke:none;stroke-width:3.78354;stroke-linecap:round;stroke-linejoin:round;stroke-miterlimit:4;stroke-dasharray:none;stroke-dashoffset:0;stroke-opacity:1;paint-order:markers fill stroke" />
      <circle
         r="4.275856"
         cy="302.3483"
         cx="-102.77712"
         id="circle2350"
         style="opacity:1;vector-effect:none;fill:#445500;fill-opacity:1;fill-rule:nonzero;stroke:none;stroke-width:1.79917;stroke-linecap:round;stroke-linejoin:round;stroke-miterlimit:4;stroke-dasharray:none;stroke-dashoffset:0;stroke-opacity:1;paint-order:markers fill stroke" />
      <path
         sodipodi:nodetypes="sscscsss"
         inkscape:connector-curvature="0"
         id="path2352"
         d="m -103.60447,367.5549 c 10.13233,-6.95591 21.77673,-14.76086 31.67145,-11.89349 5.74661,1.66529 6.99603,7.69116 6.28083,7.61718 0,0 12.09153,-0.88445 17.50616,1.33635 4.21101,1.72713 10.42351,8.81989 10.42351,8.81989 -1.07428,-2.5893 -23.63967,6.12188 -39.55589,18.04069 -9.35055,7.00214 -27.37102,13.14112 -35.27957,4.54359 -7.05937,-7.67438 0.3569,-22.56258 8.95351,-28.46421 z"
         style="fill:#d40000;stroke:none;stroke-width:3.78354;stroke-linecap:round;stroke-linejoin:round;stroke-miterlimit:4;stroke-dasharray:none;stroke-opacity:1" />
      <path
         sodipodi:nodetypes="cc"
         inkscape:connector-curvature="0"
         id="path2354"
         d="m -84.24761,356.53897 c -2.84855,-15.09457 -12.42736,-27.66635 -1.02738,-32.06656"
         style="fill:none;stroke:none;stroke-width:0.264583px;stroke-linecap:round;stroke-linejoin:round;stroke-opacity:1" />
      <path
         sodipodi:nodetypes="cccc"
         inkscape:connector-curvature="0"
         id="path2356"
         d="m -37.72252,373.43483 c 19.70193,-0.87262 16.10722,-7.73715 40.85827,-14.68971 1.89986,-4.96575 -0.0809,-7.32307 1.59772,-17.44165 -4.84518,-2.71067 -8.43702,-6.92532 -10.76236,-12.65979"
         style="fill:none;stroke:none;stroke-width:0.264583px;stroke-linecap:round;stroke-linejoin:round;stroke-opacity:1" />
      <circle
         r="11.339286"
         cy="289.84628"
         cx="4.0186806"
         id="circle2358"
         style="opacity:1;vector-effect:none;fill:#000000;fill-opacity:1;fill-rule:nonzero;stroke:none;stroke-width:1.79917;stroke-linecap:round;stroke-linejoin:round;stroke-miterlimit:4;stroke-dasharray:none;stroke-dashoffset:0;stroke-opacity:1;paint-order:markers fill stroke" />
      <path
         inkscape:connector-curvature="0"
         id="path2360"
         d="m -102.57796,247.56035 a 24.25471,25.056519 0 0 0 -8.17677,15.86001 9.4015724,9.4015724 0 0 0 1.47072,0.12713 9.4015724,9.4015724 0 0 0 9.40149,-9.40149 9.4015724,9.4015724 0 0 0 -2.69544,-6.58565 z"
         style="opacity:1;vector-effect:none;fill:#000000;fill-opacity:1;fill-rule:nonzero;stroke:none;stroke-width:1.49172;stroke-linecap:round;stroke-linejoin:round;stroke-miterlimit:4;stroke-dasharray:none;stroke-dashoffset:0;stroke-opacity:1;paint-order:markers fill stroke" />
      <path
         sodipodi:nodetypes="cc"
         inkscape:connector-curvature="0"
         id="path2362"
         d="m 4.73347,341.30347 c 0.42516,-3.81099 2.21134,-6.50155 4.48847,-8.78795"
         style="fill:none;stroke:none;stroke-width:3.78354;stroke-linecap:round;stroke-linejoin:round;stroke-miterlimit:4;stroke-dasharray:none;stroke-opacity:1" />
      <circle
         style="opacity:1;vector-effect:none;fill:none;fill-opacity:1;fill-rule:nonzero;stroke:none;stroke-width:1.79917;stroke-linecap:round;stroke-linejoin:round;stroke-miterlimit:4;stroke-dasharray:none;stroke-dashoffset:0;stroke-opacity:1;paint-order:markers fill stroke"
         id="circle2364"
         cx="-102.77718"
         cy="302.3483"
         r="4.275856" />
      <circle
         style="opacity:1;vector-effect:none;fill:none;fill-opacity:1;fill-rule:nonzero;stroke:none;stroke-width:1.79917;stroke-linecap:round;stroke-linejoin:round;stroke-miterlimit:4;stroke-dasharray:none;stroke-dashoffset:0;stroke-opacity:1;paint-order:markers fill stroke"
         id="circle2366"
         cx="4.0186625"
         cy="289.84628"
         r="11.339286" />
      <path
         style="opacity:1;vector-effect:none;fill:none;fill-opacity:1;fill-rule:nonzero;stroke:none;stroke-width:1.49172;stroke-linecap:round;stroke-linejoin:round;stroke-miterlimit:4;stroke-dasharray:none;stroke-dashoffset:0;stroke-opacity:1;paint-order:markers fill stroke"
         d="m -102.57797,247.56036 a 24.25471,25.056519 0 0 0 -8.17678,15.86001 9.4015722,9.4015722 0 0 0 1.47073,0.12713 9.4015722,9.4015722 0 0 0 9.401486,-9.40149 9.4015722,9.4015722 0 0 0 -2.695436,-6.58565 z"
         id="path2368"
         inkscape:connector-curvature="0" />
      <path
         sodipodi:nodetypes="cccccccc"
         inkscape:connector-curvature="0"
         id="path2370"
         d="m -71.932992,355.66142 c -0.356587,3.39721 -2.047856,5.53825 0.306501,13.721 6.382847,-0.87382 13.4362,-3.17246 17.937191,-0.0473 -17.450873,10.05714 -39.238599,11.89709 -52.23087,30.40211 20.498638,2.31691 35.137286,-19.04817 67.429546,-26.72953 -8.474464,-12.89824 -16.500557,-9.85157 -26.576666,-9.66312 -1.867877,-6.30698 -4.475126,-6.0304 -6.865702,-7.68313 z"
         style="fill:#800000;fill-opacity:1;stroke:none;stroke-width:0.264583px;stroke-linecap:butt;stroke-linejoin:miter;stroke-opacity:1" />
      <path
         sodipodi:nodetypes="ccccc"
         inkscape:connector-curvature="0"
         id="path2372"
         d="m -128.02211,389.6089 c 19.90731,37.04358 97.217803,-9.3046 126.6857623,-29.80058 l 0.2672696,3.87543 c -7.4974602,8.26819 -81.1941649,63.71158 -125.7503119,41.69405 -1.45403,-4.86138 -2.5609,-9.85294 -1.20272,-15.7689 z"
         style="fill:#ff2a2a;stroke:none;stroke-width:0.264583px;stroke-linecap:butt;stroke-linejoin:miter;stroke-opacity:1" />
      <path
         sodipodi:nodetypes="ccccc"
         inkscape:connector-curvature="0"
         id="path2374"
         d="m -109.04597,340.0304 c 6.33516,1.44553 13.273256,1.38371 20.312483,1.06907 -2.873774,-6.961 -3.218886,-12.85729 0.668176,-16.97162 l -16.036169,-1.73725 z"
         style="opacity:1;vector-effect:none;fill:#ff2a2a;fill-opacity:1;stroke:none;stroke-width:0.264583px;stroke-linecap:butt;stroke-linejoin:miter;stroke-miterlimit:4;stroke-dasharray:none;stroke-dashoffset:0;stroke-opacity:1" />
      <path
         sodipodi:nodetypes="cccccccccccc"
         inkscape:connector-curvature="0"
         id="path2376"
         d="m 4.543582,340.83219 4.6103996,-8.15171 c 1.7337994,-1.85552 4.2368204,-2.1726 7.2162774,-1.5368 2.51412,7.99581 -7.6293121,15.99163 -11.693042,23.98744 l 14.699824,-11.8935 4.810852,-10.89123 -1.403165,-4.07588 -6.614921,-3.74176 -10.2898772,1.26952 -10.8912335,2.87317 2.8731474,6.61492 z"
         style="opacity:1;vector-effect:none;fill:#ff2a2a;fill-opacity:1;stroke:none;stroke-width:0.264583px;stroke-linecap:butt;stroke-linejoin:miter;stroke-miterlimit:4;stroke-dasharray:none;stroke-dashoffset:0;stroke-opacity:1" />
      <path
         sodipodi:nodetypes="cccc"
         inkscape:connector-curvature="0"
         id="path2378"
         d="m -130.2128,293.40922 c -12.54414,33.05905 117.823963,30.68709 144.386908,29.67114 7.182161,8.69166 -131.612188,10.33697 -151.757448,-16.25298 7.15292,-17.35509 3.78707,-10.61222 7.37054,-13.41816 z"
         style="opacity:1;vector-effect:none;fill:#668000;fill-opacity:1;stroke:none;stroke-width:1.79917;stroke-linecap:round;stroke-linejoin:round;stroke-miterlimit:4;stroke-dasharray:none;stroke-dashoffset:0;stroke-opacity:1;paint-order:markers fill stroke" />
      <path
         sodipodi:nodetypes="cccccccc"
         inkscape:connector-curvature="0"
         id="path2380"
         d="m 24.190477,330.63988 c 13.86969,22.59444 41.516514,9.39053 49.136907,1.70088 -12.42563,31.76012 -53.987768,47.2807 -89.769349,61.04316 -45.54413,18.08528 -77.650186,36.26948 -101.108635,23.24555 -6.11978,-3.92377 -6.92415,-7.36432 -9.4494,-10.96132 8.23909,2.53476 16.02555,5.87777 26.64732,4.15774 33.521883,-2.59713 62.262394,-20.033 90.714287,-38.36458 5.3030922,-4.90181 35.295858,-31.80369 33.82887,-40.82143 z"
         style="opacity:1;vector-effect:none;fill:#668000;fill-opacity:1;stroke:none;stroke-width:1.79917;stroke-linecap:round;stroke-linejoin:round;stroke-miterlimit:4;stroke-dasharray:none;stroke-dashoffset:0;stroke-opacity:1;paint-order:markers fill stroke" />
      <g
         transform="translate(-115.18819,644.08005)"
         id="g2398">
        <path
           inkscape:connector-curvature="0"
           id="path2382"
           d="m 20.99247,-401.41765 a 24.25471,25.056519 0 0 0 -16.75867,23.79803 24.25471,25.056519 0 0 0 1.22009,7.74733 l 11.47526,-9.55187 0.2248,-6.20583 z"
           style="opacity:1;vector-effect:none;fill:none;fill-opacity:1;fill-rule:nonzero;stroke:#000000;stroke-width:3.78354;stroke-linecap:round;stroke-linejoin:round;stroke-miterlimit:4;stroke-dasharray:none;stroke-dashoffset:0;stroke-opacity:1;paint-order:markers fill stroke" />
        <ellipse
           style="opacity:1;vector-effect:none;fill:none;fill-opacity:1;fill-rule:nonzero;stroke:#000000;stroke-width:3.78354;stroke-linecap:round;stroke-linejoin:round;stroke-miterlimit:4;stroke-dasharray:none;stroke-dashoffset:0;stroke-opacity:1;paint-order:markers fill stroke"
           id="ellipse2384"
           cx="107.86761"
           cy="-354.23376"
           rx="24.254709"
           ry="25.056519" />
        <g
           id="g2396">
          <path
             style="fill:none;stroke:#000000;stroke-width:3.78354;stroke-linecap:round;stroke-linejoin:round;stroke-miterlimit:4;stroke-dasharray:none;stroke-opacity:1"
             d="m 130.58552,-319.55553 c -4.4805,-1.41822 -8.56533,1.64418 -14.09847,2.93997 -19.23709,4.50504 -55.51768,-1.11829 -83.92263,-2.80634 l -20.2798,-2.41036 c -8.50617,28.0444 -30.30152,66.5574 -24.27841,82.81883"
             id="path2386"
             inkscape:connector-curvature="0"
             sodipodi:nodetypes="csccc" />
          <path
             inkscape:connector-curvature="0"
             id="path2388"
             d="m 29.80212,-319.67774 c -2.34554,0.87952 -4.54322,2.67219 -5.15044,5.19855 -0.6945,2.84794 0.0238,5.80052 0.77372,8.56138 1.77694,6.08449 4.1361,11.99272 5.39862,18.20951 0.30061,0.46704 0.88141,-0.0707 1.28509,-0.10206 2.15243,-0.63555 4.37911,-1.14793 6.63377,-1.04202 2.34231,-0.10343 4.74064,0.3621 6.77958,1.56986 2.0011,1.35908 3.70681,3.41671 4.05697,5.87671 -0.0698,0.32855 0.11422,0.84255 0.5415,0.67032 4.79714,-0.17907 9.63027,-0.28932 14.35184,0.64134 1.92657,0.36286 3.77551,1.15603 5.31668,2.3897 2.77768,2.08408 5.21153,4.56538 7.59781,7.07374 0.84732,0.15934 1.75719,-0.0534 2.62819,-0.0696 4.55101,-0.36221 9.14578,-1.24227 13.21403,-3.39922 4.09064,-2.10348 7.93776,-4.68642 12.1634,-6.51929 4.16597,-1.90232 8.51895,-3.32089 12.90403,-4.61072 0.40372,-0.44277 0.43629,-1.14346 0.64725,-1.70495 0.43213,-2.09645 0.24098,-4.26111 0.34398,-6.38694 0.0251,-3.08213 0.15855,-6.15756 0.70265,-9.19259 -0.17109,-0.63974 -0.96397,-0.83032 -1.42226,-1.22725 -4.05566,-2.64397 -7.12244,-6.62943 -9.02948,-11.07906 -0.1197,-0.3627 -0.34848,-0.81134 -0.80634,-0.65856 -6.4728,0.57205 -12.98106,0.48854 -19.47589,0.31256 -11.27085,-0.42506 -22.51252,-1.54277 -33.75455,-2.51857 -8.55732,-0.76335 -17.12567,-1.52721 -25.70015,-1.99289 z"
             style="opacity:1;vector-effect:none;fill:none;fill-opacity:1;fill-rule:nonzero;stroke:#000000;stroke-width:3.78354;stroke-linecap:round;stroke-linejoin:round;stroke-miterlimit:4;stroke-dasharray:none;stroke-dashoffset:0;stroke-opacity:1;paint-order:markers fill stroke" />
          <path
             sodipodi:nodetypes="csssscccsscssccc"
             inkscape:connector-curvature="0"
             id="path2390"
             d="m 116.48705,-283.00643 c 7.46544,-10.71348 36.81162,-29.35967 14.09847,-36.5491 -4.4805,-1.41822 -8.56533,1.64418 -14.09847,2.93996 -19.23709,4.50505 -55.51768,-1.11828 -83.92263,-2.80633 -14.20076,-0.84392 -50.70672,-5.76051 -55.05752,-17.37252 -4.06814,-10.85761 35.53043,-38.03252 39.42226,-42.62949 -0.36895,-13.24374 5.25296,-30.9738 12.16075,-29.39964 0.76788,0.17498 2.81499,1.35105 3.02922,2.88178 4.89658,1.43939 8.07454,-4.81244 9.93947,-3.70757 24.73239,14.65257 51.76754,2.27706 67.07854,8.1757 16.17153,6.23017 39.84827,4.55819 64.67923,14.96709 0.24957,0.10462 24.65094,9.73862 31.00326,17.10525 11.5966,13.44827 -14.2619,33.3174 -15.23436,51.04848 -1.76598,32.19954 -75.53073,61.4633 -77.4431,62.15603 -36.04385,13.05648 -107.93413,54.13022 -124.07798,17.36504 33.41488,18.88491 111.6093,-22.22574 128.42286,-44.17468 z"
             style="fill:none;stroke:#000000;stroke-width:3.78354;stroke-linecap:round;stroke-linejoin:round;stroke-miterlimit:4;stroke-dasharray:none;stroke-opacity:1" />
          <path
             sodipodi:nodetypes="sscscsss"
             inkscape:connector-curvature="0"
             id="path2392"
             d="m 11.58375,-276.52514 c 10.13233,-6.95591 21.77673,-14.76086 31.67145,-11.89349 5.74661,1.66529 6.99603,7.69116 6.28083,7.61718 0,0 12.09153,-0.88445 17.50616,1.33635 4.21101,1.72713 10.42351,8.81989 10.42351,8.81989 -1.07428,-2.5893 -23.63967,6.12187 -39.55589,18.04069 -9.35055,7.00214 -27.37102,13.14112 -35.27957,4.54359 -7.05937,-7.67438 0.3569,-22.56258 8.95351,-28.46421 z"
             style="fill:none;stroke:#000000;stroke-width:3.78354;stroke-linecap:round;stroke-linejoin:round;stroke-miterlimit:4;stroke-dasharray:none;stroke-opacity:1" />
          <path
             sodipodi:nodetypes="cc"
             inkscape:connector-curvature="0"
             id="path2394"
             d="m 119.92169,-302.77657 c 0.42516,-3.81099 2.21134,-6.50155 4.48847,-8.78795"
             style="fill:none;stroke:#000000;stroke-width:3.78354;stroke-linecap:round;stroke-linejoin:round;stroke-miterlimit:4;stroke-dasharray:none;stroke-opacity:1" />
        </g>
      </g>
      <g
         id="g2416"
         transform="translate(-115.18819,644.08005)">
        <path
           style="opacity:1;vector-effect:none;fill:none;fill-opacity:1;fill-rule:nonzero;stroke:#000000;stroke-width:3.78354;stroke-linecap:round;stroke-linejoin:round;stroke-miterlimit:4;stroke-dasharray:none;stroke-dashoffset:0;stroke-opacity:1;paint-order:markers fill stroke"
           d="m 20.99247,-401.41765 a 24.25471,25.056519 0 0 0 -16.75867,23.79803 24.25471,25.056519 0 0 0 1.22009,7.74733 l 11.47526,-9.55187 0.2248,-6.20583 z"
           id="path2400"
           inkscape:connector-curvature="0" />
        <ellipse
           ry="25.056519"
           rx="24.254709"
           cy="-354.23376"
           cx="107.86761"
           id="ellipse2402"
           style="opacity:1;vector-effect:none;fill:none;fill-opacity:1;fill-rule:nonzero;stroke:#000000;stroke-width:3.78354;stroke-linecap:round;stroke-linejoin:round;stroke-miterlimit:4;stroke-dasharray:none;stroke-dashoffset:0;stroke-opacity:1;paint-order:markers fill stroke" />
        <g
           id="g2414">
          <path
             sodipodi:nodetypes="csccc"
             inkscape:connector-curvature="0"
             id="path2404"
             d="m 130.58552,-319.55553 c -4.4805,-1.41822 -8.56533,1.64418 -14.09847,2.93997 -19.23709,4.50504 -55.51768,-1.11829 -83.92263,-2.80634 l -20.2798,-2.41036 c -8.50617,28.0444 -30.30152,66.5574 -24.27841,82.81883"
             style="fill:none;stroke:#000000;stroke-width:3.78354;stroke-linecap:round;stroke-linejoin:round;stroke-miterlimit:4;stroke-dasharray:none;stroke-opacity:1" />
          <path
             style="opacity:1;vector-effect:none;fill:none;fill-opacity:1;fill-rule:nonzero;stroke:#000000;stroke-width:3.78354;stroke-linecap:round;stroke-linejoin:round;stroke-miterlimit:4;stroke-dasharray:none;stroke-dashoffset:0;stroke-opacity:1;paint-order:markers fill stroke"
             d="m 29.80212,-319.67774 c -2.34554,0.87952 -4.54322,2.67219 -5.15044,5.19855 -0.6945,2.84794 0.0238,5.80052 0.77372,8.56138 1.77694,6.08449 4.1361,11.99272 5.39862,18.20951 0.30061,0.46704 0.88141,-0.0707 1.28509,-0.10206 2.15243,-0.63555 4.37911,-1.14793 6.63377,-1.04202 2.34231,-0.10343 4.74064,0.3621 6.77958,1.56986 2.0011,1.35908 3.70681,3.41671 4.05697,5.87671 -0.0698,0.32855 0.11422,0.84255 0.5415,0.67032 4.79714,-0.17907 9.63027,-0.28932 14.35184,0.64134 1.92657,0.36286 3.77551,1.15603 5.31668,2.3897 2.77768,2.08408 5.21153,4.56538 7.59781,7.07374 0.84732,0.15934 1.75719,-0.0534 2.62819,-0.0696 4.55101,-0.36221 9.14578,-1.24227 13.21403,-3.39922 4.09064,-2.10348 7.93776,-4.68642 12.1634,-6.51929 4.16597,-1.90232 8.51895,-3.32089 12.90403,-4.61072 0.40372,-0.44277 0.43629,-1.14346 0.64725,-1.70495 0.43213,-2.09645 0.24098,-4.26111 0.34398,-6.38694 0.0251,-3.08213 0.15855,-6.15756 0.70265,-9.19259 -0.17109,-0.63974 -0.96397,-0.83032 -1.42226,-1.22725 -4.05566,-2.64397 -7.12244,-6.62943 -9.02948,-11.07906 -0.1197,-0.3627 -0.34848,-0.81134 -0.80634,-0.65856 -6.4728,0.57205 -12.98106,0.48854 -19.47589,0.31256 -11.27085,-0.42506 -22.51252,-1.54277 -33.75455,-2.51857 -8.55732,-0.76335 -17.12567,-1.52721 -25.70015,-1.99289 z"
             id="path2406"
             inkscape:connector-curvature="0" />
          <path
             style="fill:none;stroke:#000000;stroke-width:3.78354;stroke-linecap:round;stroke-linejoin:round;stroke-miterlimit:4;stroke-dasharray:none;stroke-opacity:1"
             d="m 116.48705,-283.00643 c 7.46544,-10.71348 36.81162,-29.35967 14.09847,-36.5491 -4.4805,-1.41822 -8.56533,1.64418 -14.09847,2.93996 -19.23709,4.50505 -55.51768,-1.11828 -83.92263,-2.80633 -14.20076,-0.84392 -50.70672,-5.76051 -55.05752,-17.37252 -4.06814,-10.85761 35.53043,-38.03252 39.42226,-42.62949 -0.36895,-13.24374 5.25296,-30.9738 12.16075,-29.39964 0.76788,0.17498 2.81499,1.35105 3.02922,2.88178 4.89658,1.43939 8.07454,-4.81244 9.93947,-3.70757 24.73239,14.65257 51.76754,2.27706 67.07854,8.1757 16.17153,6.23017 39.84827,4.55819 64.67923,14.96709 0.24957,0.10462 24.65094,9.73862 31.00326,17.10525 11.5966,13.44827 -14.2619,33.3174 -15.23436,51.04848 -1.76598,32.19954 -75.53073,61.4633 -77.4431,62.15603 -36.04385,13.05648 -107.93413,54.13022 -124.07798,17.36504 33.41488,18.88491 111.6093,-22.22574 128.42286,-44.17468 z"
             id="path2408"
             inkscape:connector-curvature="0"
             sodipodi:nodetypes="csssscccsscssccc" />
          <path
             style="fill:none;stroke:#000000;stroke-width:3.78354;stroke-linecap:round;stroke-linejoin:round;stroke-miterlimit:4;stroke-dasharray:none;stroke-opacity:1"
             d="m 11.58375,-276.52514 c 10.13233,-6.95591 21.77673,-14.76086 31.67145,-11.89349 5.74661,1.66529 6.99603,7.69116 6.28083,7.61718 0,0 12.09153,-0.88445 17.50616,1.33635 4.21101,1.72713 10.42351,8.81989 10.42351,8.81989 -1.07428,-2.5893 -23.63967,6.12187 -39.55589,18.04069 -9.35055,7.00214 -27.37102,13.14112 -35.27957,4.54359 -7.05937,-7.67438 0.3569,-22.56258 8.95351,-28.46421 z"
             id="path2410"
             inkscape:connector-curvature="0"
             sodipodi:nodetypes="sscscsss" />
          <path
             style="fill:none;stroke:#000000;stroke-width:3.78354;stroke-linecap:round;stroke-linejoin:round;stroke-miterlimit:4;stroke-dasharray:none;stroke-opacity:1"
             d="m 119.92169,-302.77657 c 0.42516,-3.81099 2.21134,-6.50155 4.48847,-8.78795"
             id="path2412"
             inkscape:connector-curvature="0"
             sodipodi:nodetypes="cc" />
        </g>
      </g>
    </g>
  </g>
</svg>
