<?xml version="1.0" standalone="no"?>
<!DOCTYPE svg PUBLIC "-//W3C//DTD SVG 20010904//EN"
 "http://www.w3.org/TR/2001/REC-SVG-20010904/DTD/svg10.dtd">
<svg version="1.0" xmlns="http://www.w3.org/2000/svg"
 width="700.000000pt" height="700.000000pt" viewBox="0 0 700.000000 700.000000"
 preserveAspectRatio="xMidYMid meet">
<metadata>
Created by potrace 1.14, written by Peter Selinger 2001-2017
</metadata>
<g transform="translate(0.000000,700.000000) scale(0.100000,-0.100000)"
fill="#000000" stroke="none">
<path d="M1587 6244 c-51 -16 -107 -65 -198 -174 -35 -42 -70 -68 -145 -109
-269 -147 -370 -248 -408 -408 -21 -93 -14 -376 13 -468 11 -38 19 -70 18 -71
-24 -14 -193 -133 -252 -178 -434 -325 -635 -586 -611 -793 8 -73 37 -126 102
-189 50 -50 124 -88 194 -101 14 -2 43 -8 65 -13 22 -5 65 -12 95 -15 60 -7
133 -21 310 -59 113 -24 188 -35 272 -40 l43 -3 -2 -69 c-3 -139 -85 -334
-238 -564 -190 -287 -330 -562 -439 -862 -106 -292 -150 -511 -147 -725 3
-242 73 -382 261 -518 116 -84 239 -137 400 -172 65 -14 129 -18 270 -18 221
0 309 11 564 70 47 11 211 60 311 93 61 20 112 37 115 37 3 1 12 5 20 8 8 4
51 20 95 36 86 31 371 143 420 165 17 8 39 17 50 20 11 3 94 42 184 86 166 82
233 109 331 131 118 26 267 88 550 229 158 78 260 120 640 266 762 291 1115
478 1409 743 219 198 342 394 441 706 26 79 105 375 116 430 24 126 47 165
154 270 72 70 154 171 222 275 205 314 243 600 104 782 -64 83 -139 126 -339
194 -70 24 -142 51 -160 60 -39 20 -87 64 -87 80 0 6 -12 14 -28 17 -58 12
-141 49 -262 118 -198 113 -344 188 -405 209 -97 33 -233 52 -460 65 -100 5
-255 15 -330 20 -198 14 -370 57 -545 137 -161 74 -322 139 -405 164 -79 23
-108 27 -240 28 -82 0 -175 -2 -205 -6 -57 -8 -257 -41 -345 -58 -27 -5 -66
-12 -85 -15 -19 -3 -46 -7 -60 -10 -116 -20 -305 -22 -385 -4 -33 7 -131 48
-218 91 -169 83 -233 105 -312 108 -27 1 -68 3 -90 5 -131 14 -323 13 -368 -1z
m433 -154 c30 -6 69 -13 85 -16 17 -3 111 -25 210 -49 368 -90 434 -102 545
-99 84 2 227 13 250 19 8 2 39 7 69 10 30 4 63 8 74 11 10 2 45 6 76 10 31 3
58 8 61 9 6 3 168 16 235 19 16 1 61 -2 100 -5 138 -14 191 -27 420 -104 331
-110 369 -119 590 -140 33 -3 76 -8 95 -10 19 -3 71 -7 115 -10 44 -4 91 -8
105 -10 14 -2 54 -7 90 -10 65 -7 222 -30 270 -39 217 -45 268 -66 493 -204
184 -113 203 -122 377 -176 230 -73 415 -193 499 -325 65 -100 76 -237 31
-371 -43 -129 -159 -312 -318 -500 -149 -176 -272 -426 -362 -735 -35 -121
-77 -212 -139 -303 -153 -226 -503 -572 -793 -786 -264 -194 -660 -378 -1088
-506 -223 -67 -403 -128 -495 -170 -22 -10 -68 -30 -103 -44 -67 -28 -136 -60
-375 -175 -82 -39 -150 -71 -152 -71 -1 0 -63 -29 -137 -64 -281 -134 -468
-199 -908 -316 -391 -104 -528 -128 -701 -124 -152 4 -243 23 -347 71 -62 29
-167 96 -178 114 -5 9 49 10 212 4 412 -15 547 -11 694 20 147 30 241 66 680
257 150 65 261 104 435 153 402 112 818 338 1133 615 54 48 147 148 221 239
124 151 242 277 367 391 33 30 100 91 149 135 205 185 275 258 305 319 54 112
69 217 40 287 -13 30 -55 59 -85 59 -9 0 -26 6 -38 14 -12 8 -44 17 -71 21
-48 7 -335 7 -431 0 -27 -2 -158 -6 -290 -9 -132 -4 -271 -9 -310 -13 -129
-13 -561 -6 -790 12 -22 1 -89 6 -150 10 -60 4 -118 9 -127 10 -10 2 -55 7
-101 10 -45 3 -93 8 -107 10 -14 2 -63 7 -110 10 -47 4 -87 8 -90 10 -3 2 -43
6 -90 10 -47 4 -92 8 -100 10 -8 2 -44 6 -80 9 -36 4 -76 9 -90 11 -14 2 -53
7 -87 10 -34 3 -70 7 -80 9 -10 2 -45 7 -78 10 -107 12 -139 16 -175 21 -19 2
-57 7 -85 10 -27 3 -66 7 -85 10 -19 2 -66 7 -105 10 -139 12 -249 23 -295 30
-14 2 -45 7 -70 10 -385 55 -606 240 -569 477 12 73 69 184 140 273 71 87 236
246 369 354 52 42 164 132 248 200 320 259 370 335 407 619 13 104 17 130 30
172 20 72 54 136 97 184 85 97 141 118 303 111 61 -2 135 -9 165 -15z m-716
-375 c-3 -258 -35 -348 -173 -485 -80 -79 -167 -148 -175 -139 -6 6 -19 148
-19 199 1 95 -1 91 42 84 124 -20 226 94 245 274 4 40 -25 67 -84 77 -22 4
-42 11 -45 15 -5 8 65 64 170 138 l30 21 5 -27 c3 -15 5 -85 4 -157z m85
-2130 c35 -8 67 -18 72 -21 5 -3 0 -22 -10 -43 -28 -54 -48 -165 -45 -241 7
-146 69 -338 154 -476 78 -126 82 -134 78 -144 -2 -6 -43 -25 -92 -41 -192
-66 -426 -219 -597 -389 -83 -82 -119 -130 -157 -205 -75 -149 -77 -298 -6
-435 99 -189 305 -302 549 -303 188 0 366 72 592 241 70 53 134 102 141 109
26 25 229 182 290 223 126 85 348 187 502 230 67 18 93 20 251 15 160 -5 183
-3 245 16 80 25 195 81 349 171 108 63 238 129 283 142 15 5 22 3 23 -6 5 -44
-5 -91 -32 -146 -76 -156 -381 -380 -669 -491 -108 -42 -176 -76 -325 -166
-157 -94 -216 -121 -321 -146 -100 -23 -138 -38 -284 -107 -227 -107 -504
-189 -799 -238 -18 -3 -43 -7 -54 -10 -11 -2 -57 -8 -101 -14 -45 -6 -92 -13
-105 -15 -143 -24 -386 -21 -511 6 -199 44 -378 170 -412 289 -18 67 -23 227
-8 310 5 33 12 70 14 82 8 44 57 188 97 285 22 54 123 262 223 463 100 201
217 451 260 555 42 105 81 199 86 210 30 67 72 216 74 256 1 33 6 50 16 53 27
8 163 -3 229 -19z m546 -68 c55 -9 138 -19 185 -22 47 -4 92 -8 100 -10 14 -3
103 -11 225 -20 28 -3 79 -7 115 -10 36 -2 103 -7 150 -10 47 -3 110 -8 140
-10 30 -2 112 -7 181 -10 69 -4 155 -8 190 -10 101 -5 502 -21 630 -24 35 -1
36 -2 52 -59 30 -107 81 -153 229 -206 58 -21 98 -60 98 -96 0 -15 -9 -52 -19
-82 -21 -60 -21 -126 -2 -196 40 -145 2 -183 -232 -231 -80 -17 -121 -33 -230
-90 -149 -79 -276 -130 -393 -160 -114 -29 -137 -32 -256 -36 -143 -5 -239 18
-431 99 -170 71 -230 91 -309 101 -48 6 -54 10 -56 31 -3 33 -35 95 -64 120
-60 54 -134 83 -253 100 -39 5 -234 7 -255 2 -6 -2 -21 22 -33 52 -13 30 -60
129 -105 220 -87 175 -112 252 -117 360 -8 198 112 249 460 197z m2588 -75
c53 -24 109 -90 132 -157 53 -160 -72 -403 -275 -534 -96 -62 -101 -58 -88 69
14 134 76 286 149 364 53 59 51 70 -11 63 -65 -8 -109 -37 -171 -115 l-18 -24
-45 31 c-73 50 -141 149 -160 233 -7 30 -2 32 74 43 25 3 88 14 140 23 143 26
221 27 273 4z m-2590 -858 c18 -10 64 -47 102 -84 100 -96 134 -112 350 -164
314 -77 487 -139 458 -166 -4 -5 -56 -20 -115 -34 -125 -30 -281 -86 -353
-126 -27 -16 -95 -63 -150 -105 -502 -383 -683 -485 -885 -499 -204 -15 -436
272 -424 523 7 148 132 295 380 449 273 169 540 256 637 206z"/>
<path d="M4018 5365 c-2 -1 -41 -5 -88 -9 -229 -16 -385 -70 -519 -179 -75
-60 -201 -200 -257 -284 -33 -50 -38 -65 -39 -118 0 -33 3 -85 7 -115 17 -123
20 -145 24 -151 2 -3 6 -20 9 -38 26 -146 156 -386 262 -481 97 -88 203 -146
328 -181 108 -31 326 -32 425 -4 152 43 268 119 361 235 141 176 203 441 164
700 -10 67 -62 218 -97 280 -37 67 -88 131 -148 187 -45 42 -174 113 -240 132
-44 13 -185 32 -192 26z m157 -141 c74 -18 138 -55 192 -110 39 -40 93 -129
93 -155 0 -6 -20 1 -44 15 -52 30 -113 34 -219 11 -171 -36 -330 -173 -374
-324 -79 -271 160 -559 455 -547 80 3 81 2 66 -18 -49 -71 -160 -164 -236
-199 -271 -126 -604 106 -738 515 -11 35 -23 74 -25 88 -3 14 -9 48 -14 75 -9
48 -8 54 41 160 126 274 165 327 298 406 157 93 342 123 505 83z"/>
</g>
</svg>
