<?xml version="1.0" encoding="UTF-8" standalone="no"?>
<svg
   width="1000"
   height="285.71484"
   version="1.1"
   id="svg4"
   xmlns="http://www.w3.org/2000/svg"
   xmlns:svg="http://www.w3.org/2000/svg">
  <defs
     id="defs8" />
  <path
     id="path1314-6"
     style="fill:#ffffff;stroke-width:11.9048;fill-opacity:0.5"
     d="M 0,0 V 285.71484 H 285.71484 V 0 Z M 714.28515,0 V 285.71484 H 999.99999 V 0 Z m 154.59179,60.783203 c 8.6662,0 16.81897,0.955721 24.45703,2.865235 7.78494,1.762619 14.982,4.406393 21.5918,7.93164 v 31.287112 c -6.02227,-4.112791 -12.55884,-7.197509 -19.60937,-9.253909 -7.05047,-2.20328 -14.46702,-3.304687 -22.25196,-3.304687 -10.7226,0 -19.90296,2.055175 -27.54101,6.167968 -7.49116,4.112788 -13.29347,10.062738 -17.40625,17.847658 -3.96591,7.78493 -5.94922,17.25859 -5.94922,28.42187 0,11.16328 1.90949,20.71077 5.72851,28.64258 3.9659,7.78492 9.62058,13.73292 16.96485,17.84571 7.49118,4.11279 16.52387,6.16992 27.09961,6.16992 16.1574,0 31.06818,-4.33377 44.72851,-13 v 30.62695 c -6.463,3.67213 -13.95527,6.5354 -22.47461,8.5918 -8.51933,2.20328 -17.47824,3.30468 -26.8789,3.30468 -12.48526,0 -23.72274,-1.83567 -33.71094,-5.50781 -9.98821,-3.81902 -18.43428,-9.25419 -25.33789,-16.30469 -6.90361,-7.0505 -12.19115,-15.64225 -15.86328,-25.77734 -3.67214,-10.28197 -5.50781,-21.81278 -5.50781,-34.5918 0,-12.48525 1.90949,-23.72273 5.72851,-33.71093 3.81902,-10.135092 9.32606,-18.800671 16.52344,-25.998051 7.19738,-7.19738 15.7911,-12.70637 25.7793,-16.52539 10.13508,-3.81902 21.44442,-5.728516 33.92968,-5.728516 z M 357.14258,0 V 285.71484 H 642.85742 V 0 Z m 80.08789,64.089844 h 60.81055 c 17.92001,0 31.80125,3.525672 41.64257,10.576172 9.84132,6.903606 14.76172,16.890094 14.76172,29.962894 0,7.49115 -1.76381,14.02773 -5.28906,19.60937 -3.52525,5.43476 -8.73896,9.76852 -15.64258,13 9.54755,3.08459 16.8184,8.00499 21.8125,14.76172 5.14099,6.60984 7.71094,14.68878 7.71094,24.23633 0,9.40066 -2.49613,17.47959 -7.49023,24.23633 -4.84722,6.75672 -11.82475,11.97043 -20.93165,15.64257 -9.10688,3.67214 -20.04909,5.50782 -32.82812,5.50782 h -64.55664 z m 32.82812,25.55664 v 39.218746 h 24.89844 c 8.51935,0 14.98211,-1.76186 19.38867,-5.28711 4.55344,-3.67213 6.83008,-8.74017 6.83008,-15.20312 0,-12.485256 -8.7394,-18.728516 -26.21875,-18.728516 z m 0,63.896486 v 42.52344 h 28.64258 c 9.84132,0 17.40744,-1.76382 22.69531,-5.28907 5.28788,-3.67212 7.93164,-8.88584 7.93164,-15.64257 0,-14.39476 -10.06225,-21.5918 -30.18554,-21.5918 z M 84.293612,103.7792 c 0.566114,-2.83335 16.895878,-23.842382 30.767548,-27.761211 2.43499,-0.888062 2.36113,-2.348804 1.47367,-5.370643 -0.63011,-2.561687 -1.24035,-4.145437 -1.64776,-7.589678 0.25528,-5.098348 4.71056,-7.91643 10.20713,-11.714278 1.88428,-1.508305 8.63969,-5.185727 6.02547,-9.315698 -4.03314,-5.351408 -3.10771,-9.013248 0.40413,-9.103474 5.58733,-0.143533 3.10404,3.74775 3.41436,8.434625 0.27093,4.090801 1.77328,5.331878 4.08425,3.605051 5.3031,-3.962621 4.24393,-10.946712 8.59974,-7.846685 6.02965,4.291302 -2.58943,6.185391 -6.21392,10.058102 -1.57316,1.680899 -0.43517,3.465703 0.75461,3.539878 6.35114,0.395949 11.60405,-1.614466 10.74501,3.330423 -1.09257,6.28912 -6.14296,-0.826849 -10.69293,0.501512 -2.95049,0.861391 -2.68191,1.435916 -2.59132,3.068819 0.19609,3.535435 9.77742,5.393115 5.82966,8.945801 -4.80674,4.325727 -5.0851,-3.339346 -8.5348,-6.778419 -1.4413,-1.436862 -3.93783,-3.150031 -6.44016,-2.27883 -6.74172,2.617181 -5.59679,5.136635 -5.23142,8.443586 1.35254,5.934102 6.05828,6.605968 8.11313,6.752523 1.40573,0.06577 2.8048,0.271933 4.19138,0.666629 6.25824,1.360141 13.44483,9.130553 19.43969,3.917892 3.79856,-8.793296 15.04364,-14.733467 24.04163,-9.969142 7.61158,4.938351 14.46795,11.041528 22.27598,15.745269 7.72226,2.793566 11.29053,13.579174 2.23333,17.081598 -8.94956,1.85139 -17.97599,3.87724 -26.14091,8.14219 -8.6204,4.51768 -16.80586,-2.04754 -20.40941,-9.716096 -0.9625,-1.499938 -2.86608,-2.596145 -4.63535,-1.827381 -3.00158,1.49839 -12.00325,5.850717 -12.04294,9.581427 0.51444,10.04032 -1.3209,12.21586 7.12766,16.8703 3.29769,1.70268 5.23363,-0.28016 6.7534,-1.63376 3.63747,-3.23983 2.86769,-11.36211 7.99099,-6.9705 4.03234,3.45643 -5.21267,5.48798 -5.60728,9.00677 -0.18202,1.62511 -0.55036,2.45803 2.34705,3.48384 4.46818,1.58187 9.56492,-5.19166 10.27968,1.01141 0.60544,5.25454 -4.1158,2.49876 -10.47912,2.53727 -1.19225,0.008 -2.33427,1.50963 -0.69268,3.12376 3.66107,3.59983 12.5259,5.72627 6.70007,10.01702 -4.02245,2.96256 -3.80636,-3.33019 -8.87845,-7.58449 -2.21037,-1.85395 -3.92268,-0.66959 -4.4239,3.39942 -0.57314,4.66201 1.02897,8.84328 -3.72416,8.4114 -3.49873,-0.3179 -3.14558,-4.46757 -0.49486,-9.31376 2.89108,-6.18418 -0.34762,-7.29698 -5.4926,-9.63947 -5.95797,-2.51912 -10.03747,-6.4315 -11.095,-11.46674 -1.68,-5.61199 -7.2616,-0.98858 -9.63057,0.41209 -5.05753,3.29531 -8.78348,5.74649 -11.84844,8.30536 -1.75125,1.37013 -0.29641,3.1916 2.61456,3.03515 6.61899,-0.74825 10.16283,0.0325 11.46018,1.1331 6.42805,5.45218 -3.5589,14.99061 -1.01973,20.44387 1.2632,2.08548 3.83523,0.14008 5.07644,-1.96525 1.85719,-3.33263 3.54624,-6.13258 5.71829,-3.87933 2.8683,2.93741 1.26978,3.90071 -3.0636,6.41109 -3.31557,2.3079 -1.03438,4.44456 0.77447,5.27321 2.84064,1.31553 9.33394,-1.89138 8.74068,4.01651 -1.37682,6.58397 -6.62755,0.10495 -10.47122,-0.47365 -3.00825,-0.65568 -3.9436,1.41645 -4.09145,2.9283 -0.16794,5.25714 5.96424,11.50571 -0.85892,12.28465 -6.2213,0.16016 -2.60229,-5.52268 -4.12129,-9.72388 -1.21729,-3.7187 -3.30847,-3.71587 -4.81833,-3.45968 -2.74963,0.60078 -5.21014,9.20178 -9.1763,3.94077 -3.07983,-3.96806 3.45013,-5.62114 6.77282,-7.67748 1.07843,-0.6565 2.01579,-1.90856 1.86954,-3.61707 -1.59402,-9.48556 -1.7162,-13.26082 -3.24512,-12.23498 -8.97495,4.59211 -15.136266,-1.15278 -15.783695,2.50608 -5.85917,19.95576 2.766075,36.70984 15.828795,52.14394 31.76184,37.52783 94.48398,25.0548 90.92642,-15.12001 -0.87939,-10.69776 -10.07863,-15.68376 -19.10985,-16.37247 -7.28383,-0.55545 -15.57804,4.5332 -17.59117,1.46337 -1.28674,-2.10356 2.80116,-5.12052 8.60462,-6.9012 26.3364,-9.54293 46.00407,12.61813 39.73658,37.27289 -25.31235,82.39556 -166.93629,27.48418 -140.871328,-56.67837 0.691264,-2.23205 1.173086,-4.43469 0.578882,-7.81896 -0.773512,-4.59025 -6.129229,-6.15823 -5.877192,-16.23661 -0.497125,-2.5648 -7.845337,-1.68846 -12.78213,2.09698 -1.245019,0.92401 -2.289252,2.22549 -2.413911,3.48187 -0.414426,3.88549 0.832246,10.4657 -4.07822,9.40827 -6.459734,-1.29633 0.528922,-8.51291 -0.496723,-11.06227 -0.86768,-1.74127 -0.958338,-2.56261 -4.069818,-2.61682 -4.444618,0.45038 -8.473423,7.05433 -11.023505,1.37742 -1.367221,-6.48738 5.940772,-3.3216 10.606533,-5.74983 1.298667,-0.78805 2.459024,-2.31261 0.565163,-4.74012 -2.186221,-3.21388 -11.136068,-4.8006 -5.797935,-8.8931 4.41112,-3.167474 5.465875,4.1568 7.8819,6.14744 1.53032,1.2715 5.017113,1.53723 5.661363,-2.4508 0.385931,-4.993114 0.805171,-6.989234 4.125221,-5.724689 2.971671,0.981881 1.707472,4.165189 -0.492046,7.282519 -1.360058,2.03059 -2.333699,5.2266 0.09312,5.46197 6.015002,-0.0731 9.276356,-13.696657 16.97464,-10.26411 2.629858,1.26407 5.170203,7.87476 6.605473,9.38184 1.764282,-0.55791 2.66636,-4.35524 3.186205,-6.34427 z" />
</svg>
